#!OML:ASF F:\VICON\USERDATA\INSTALL\rory3\rory3.ASF
:FULLY-SPECIFIED
:DEGREES
457
root 1.10704 17.852 19.9539 -176.362 -10.1716 -171.751
lowerback 20.134 -2.29867 6.58139
upperback -0.49479 -1.52584 8.34016
thorax -11.8551 -1.20514 6.19638
lowerneck -20.1602 -0.939456 1.35855
upperneck 26.874 0.963404 -5.56551
head 12.2656 0.205875 -2.10006
rclavicle 4.09496e-014 1.1609e-013
rhumerus 10.4207 -24.3567 -4.55444
rradius 32.4975
rwrist -58.6505
rhand 25.5197 -1.97808
rfingers 7.12502
rthumb 49.6379 -23.3889
lclavicle 4.09496e-014 1.1609e-013
lhumerus 50.1111 -2.83701 60.647
lradius 48.8582
lwrist 24.3394
lhand 41.9052 22.0514
lfingers 7.12502
lthumb 63.9545 30.8782
rfemur -103.49 -14.3812 17.8725
rtibia 91.9561
rfoot 8.33185 -18.3044
rtoes 29.6676
lfemur -21.0159 -13.3615 -19.5843
ltibia 39.8765
lfoot -0.579021 9.89031
ltoes -6.76178
458
root 1.02654 18.2636 19.8217 -175.351 -11.2429 -170.585
lowerback 19.6447 -2.83467 9.21553
upperback -1.23263 -1.66474 8.75077
thorax -12.4892 -1.46637 5.28147
lowerneck -20.6899 -1.10929 1.19976
upperneck 27.5811 1.1175 -6.22687
head 12.6715 0.188575 -2.3173
rclavicle -1.63003e-014 4.77083e-015
rhumerus 10.3885 -26.8437 -3.96615
rradius 28.8243
rwrist -49.7551
rhand 24.9839 -1.7716
rfingers 7.12502
rthumb 49.1464 -23.4312
lclavicle -1.63003e-014 4.77083e-015
lhumerus 51.0661 -2.73307 59.0831
lradius 43.4314
lwrist 15.7714
lhand 42.2171 21.4482
lfingers 7.12502
lthumb 64.2056 29.8945
rfemur -102.414 -15.3052 17.8437
rtibia 85.079
rfoot 9.239 -19.4129
rtoes 30.1919
lfemur -20.9793 -12.9274 -17.716
ltibia 36.8751
lfoot 3.00969 13.2095
ltoes 9.07388
459
root 0.945826 18.692 19.695 -174.22 -12.5073 -169.387
lowerback 19.1023 -3.37393 11.9826
upperback -2.27043 -1.76291 9.12819
thorax -13.4847 -1.75361 4.31952
lowerneck -20.9402 -1.34878 0.934928
upperneck 28.4903 1.24824 -6.75752
head 13.1099 0.185779 -2.47364
rclavicle -4.17448e-014 -5.725e-014
rhumerus 10.7773 -31.0306 -4.09646
rradius 25.3706
rwrist -39.8014
rhand 25.153 -1.87214
rfingers 7.12502
rthumb 49.3016 -23.454
lclavicle -4.17448e-014 -5.725e-014
lhumerus 51.2445 -2.91301 56.8484
lradius 38.7551
lwrist 6.28967
lhand 39.4209 19.0627
lfingers 7.12502
lthumb 61.9134 30.664
rfemur -101.225 -16.4182 17.5467
rtibia 78.2422
rfoot 10.6472 -20.7576
rtoes 30.272
lfemur -21.3738 -12.6144 -15.518
ltibia 34.1098
lfoot -1.76618 20.5839
ltoes 25.9405
460
root 0.876044 19.0907 19.5598 -172.914 -14.0242 -168.173
lowerback 17.1952 -3.7948 14.7445
upperback -2.84289 -2.13384 9.57452
thorax -13.1524 -2.18315 3.37287
lowerneck -21.4101 -1.55619 0.472195
upperneck 29.05 1.35403 -7.07677
head 13.4563 0.150136 -2.51948
rclavicle -2.06736e-014 1.81292e-013
rhumerus 11.5396 -37.0814 -4.75463
rradius 22.737
rwrist -29.6315
rhand 25.6027 -2.12705
rfingers 7.12502
rthumb 49.7139 -23.4987
lclavicle -2.06736e-014 1.81292e-013
lhumerus 51.6708 -4.96438 50.4378
lradius 33.8188
lwrist 5.50701
lhand 36.474 19.6194
lfingers 7.12502
lthumb 59.4136 34.0009
rfemur -100.306 -17.6999 16.7176
rtibia 71.8565
rfoot 12.4505 -22.2568
rtoes 29.4574
lfemur -20.7055 -7.87413 -13.8974
ltibia 31.3503
lfoot -15.0127 18.1637
ltoes 44.5928
461
root 0.808701 19.4569 19.4092 -171.549 -15.8945 -166.899
lowerback 15.9291 -4.28287 17.9824
upperback -4.36385 -2.29203 9.82826
thorax -14.4226 -2.63959 2.14964
lowerneck -20.9334 -1.89743 -0.123647
upperneck 30.1917 1.45404 -7.20075
head 13.8534 0.192174 -2.45811
rclavicle -4.6118e-014 3.18055e-015
rhumerus 11.161 -41.1781 -4.48046
rradius 21.1224
rwrist -20.5534
rhand 25.713 -2.42017
rfingers 7.12502
rthumb 49.8149 -23.7395
lclavicle -4.6118e-014 3.18055e-015
lhumerus 51.4734 -7.01132 46.8465
lradius 30.2299
lwrist 0.868119
lhand 33.8166 21.6544
lfingers 7.12502
lthumb 57.1016 38.1555
rfemur -99.3061 -19.2027 15.0111
rtibia 66.0119
rfoot 13.6645 -24.5376
rtoes 30.362
lfemur -19.4522 -3.08358 -11.8451
ltibia 28.4888
lfoot -5.15303 20.3605
ltoes 31.0878
462
root 0.750677 19.8049 19.2474 -170.228 -18.0001 -165.95
lowerback 14.397 -4.66716 20.5825
upperback -5.9946 -2.58717 10.3097
thorax -14.9339 -3.20541 1.21345
lowerneck -21.268 -2.04272 -0.546019
upperneck 31.2671 1.75396 -7.38535
head 14.4239 0.290137 -2.43189
rclavicle 3.18055e-014 2.06736e-014
rhumerus 10.5178 -45.1033 -3.95562
rradius 20.5756
rwrist -13.2024
rhand 25.0466 -3.58288
rfingers 7.12502
rthumb 49.2039 -25.2138
lclavicle 3.18055e-014 2.06736e-014
lhumerus 51.3687 -8.87632 42.8161
lradius 27.0518
lwrist -4.07952
lhand 31.9822 21.9526
lfingers 7.12502
lthumb 55.4797 39.7385
rfemur -97.4301 -20.5632 11.2024
rtibia 60.5334
rfoot 12.8656 -28.5936
rtoes 33.4309
lfemur -17.9157 -1.70653 -9.68801
ltibia 25.6492
lfoot 1.98972 20.4161
ltoes 42.2352
463
root 0.716267 20.1274 19.069 -169.203 -19.9054 -165.266
lowerback 12.0655 -4.81708 22.6065
upperback -6.14248 -3.22742 10.382
thorax -14.7045 -3.65393 0.673364
lowerneck -21.6813 -2.04203 -0.950076
upperneck 31.4818 1.87938 -7.18492
head 14.6181 0.313042 -2.2686
rclavicle -1.15295e-014 -4.77083e-014
rhumerus 9.55272 -49.7687 -3.41357
rradius 20.6949
rwrist -7.69385
rhand 24.5595 -5.1149
rfingers 7.12502
rthumb 48.7564 -26.9669
lclavicle -1.15295e-014 -4.77083e-014
lhumerus 51.9651 -10.7549 37.5453
lradius 25.1714
lwrist -8.12988
lhand 31.6541 25.3709
lfingers 7.12502
lthumb 55.1875 43.373
rfemur -93.7383 -20.4103 3.68118
rtibia 55.6011
rfoot 6.58258 -35.4533
rtoes 39.2611
lfemur -15.6485 -1.21783 -7.5616
ltibia 22.5823
lfoot 8.64531 25.3308
ltoes 37.0973
464
root 0.711657 20.412 18.884 -168.843 -21.3032 -164.073
lowerback 9.5427 -4.70891 24.2875
upperback -5.89157 -3.83952 10.7488
thorax -13.0407 -4.02496 0.0973939
lowerneck -22.2324 -1.9292 -1.10909
upperneck 31.0122 1.83174 -6.87727
head 14.5202 0.262555 -2.12762
rclavicle -1.82882e-014 -1.03368e-013
rhumerus 8.19959 -54.7827 -2.58694
rradius 21.0101
rwrist -3.85923
rhand 24.2333 -6.33303
rfingers 7.12502
rthumb 48.4563 -28.3301
lclavicle -1.82882e-014 -1.03368e-013
lhumerus 52.8653 -11.668 32.4864
lradius 24.0432
lwrist -12.7563
lhand 29.4619 26.0487
lfingers 7.12502
lthumb 53.2225 45.3991
rfemur -87.6985 -16.4634 -8.96148
rtibia 51.1899
rfoot -22.2197 -39.9333
rtoes 53.1237
lfemur -12.6013 -0.709607 -4.81427
ltibia 19.8184
lfoot 11.372 31.7259
ltoes 21.64
465
root 0.731784 20.6985 18.7046 -169.429 -22.6746 -163.348
lowerback 9.21487 -5.18423 25.034
upperback -6.28094 -4.48373 11.0358
thorax -13.5109 -4.44317 0.302243
lowerneck -21.4364 -1.68171 -1.08757
upperneck 30.7686 2.16821 -6.87298
head 14.2518 0.44241 -2.04704
rclavicle 6.99722e-014 -7.95139e-014
rhumerus 6.38577 -55.8915 -0.937622
rradius 21.2115
rwrist -2.91756
rhand 23.0071 -7.4582
rfingers 7.12502
rthumb 47.3255 -29.9797
lclavicle 6.99722e-014 -7.95139e-014
lhumerus 52.2576 -13.6598 27.7214
lradius 23.4935
lwrist -17.3769
lhand 27.5982 25.8998
lfingers 7.12502
lthumb 51.5352 46.2775
rfemur -80.6921 -6.63301 -28.2205
rtibia 48.1635
rfoot -56.575 -19.5131
rtoes 61.2024
lfemur -8.49554 -0.437676 -2.40782
ltibia 17.5093
lfoot 4.89519 37.9969
ltoes 21.398
466
root 0.761985 20.9003 18.5218 -170.162 -23.9541 -163.985
lowerback 9.19253 -5.88212 24.4924
upperback -6.33 -5.39887 10.9381
thorax -13.711 -4.78925 0.698662
lowerneck -20.5296 -1.39306 -1.15431
upperneck 30.2374 2.45627 -6.67755
head 13.8294 0.610387 -1.88194
rclavicle 4.65156e-014 -5.08889e-014
rhumerus 4.10742 -55.8448 1.20376
rradius 21.285
rwrist -3.45838
rhand 20.7716 -8.66012
rfingers 7.12502
rthumb 45.2532 -32.0592
lclavicle 4.65156e-014 -5.08889e-014
lhumerus 51.493 -12.8735 27.6948
lradius 22.1617
lwrist -26.7809
lhand 27.3306 26.1804
lfingers 7.12502
lthumb 51.2918 46.6975
rfemur -76.6274 6.43761 -49.2761
rtibia 46.1769
rfoot -75.1084 5.11201
rtoes 63.1181
lfemur -3.69653 -1.22342 -1.23451
ltibia 15.2052
lfoot -2.82327 43.0945
ltoes 24.2531
467
root 0.781736 21.0656 18.3585 -170.615 -24.6305 -165.402
lowerback 9.69375 -6.38891 23.2406
upperback -6.45462 -5.91238 10.5602
thorax -14.1844 -4.89256 1.08711
lowerneck -19.9577 -1.25117 -1.2889
upperneck 30.198 2.62679 -6.38605
head 13.6881 0.735839 -1.70312
rclavicle -2.14687e-014 2.22639e-014
rhumerus 1.33479 -55.2969 3.87462
rradius 21.4243
rwrist -3.79653
rhand 18.6308 -9.42018
rfingers 7.12502
rthumb 43.2575 -33.5745
lclavicle -2.14687e-014 2.22639e-014
lhumerus 50.7759 -12.3547 27.6073
lradius 21.6293
lwrist -35.1482
lhand 26.7561 26.6551
lfingers 7.12502
lthumb 50.7684 47.4648
rfemur -75.6382 14.5826 -62.8418
rtibia 45.425
rfoot -85.2376 10.6854
rtoes 63.1813
lfemur 1.35674 -2.95642 -0.929091
ltibia 12.533
lfoot -3.01414 46.7566
ltoes 26.7757
468
root 0.83156 21.2016 18.1379 -171.703 -25.611 -167.561
lowerback 9.99116 -7.05285 20.7237
upperback -5.86042 -6.94454 10.0924
thorax -13.5248 -5.02058 1.92424
lowerneck -20.2949 -1.20879 -1.38192
upperneck 30.2607 2.6088 -6.09252
head 13.7794 0.738887 -1.57859
rclavicle 5.12864e-014 1.59028e-015
rhumerus -1.47936 -55.9661 6.54805
rradius 21.4409
rwrist -2.67825
rhand 16.9941 -9.28289
rfingers 7.12502
rthumb 41.7253 -33.9643
lclavicle 5.12864e-014 1.59028e-015
lhumerus 50.6428 -9.87177 29.7631
lradius 20.6102
lwrist -44.6421
lhand 24.8099 26.028
lfingers 7.12502
lthumb 48.9866 47.767
rfemur -155.72 -19.2945 109.338
rtibia 45.3781
rfoot 63.7179 6.89592
rtoes 63.4871
lfemur 7.14895 -4.42373 -0.894343
ltibia 9.88604
lfoot 15.1246 46.6585
ltoes 21.9202
469
root 0.874698 21.2865 17.9228 -172.417 -26.205 -169.804
lowerback 10.0598 -7.47567 18.0744
upperback -5.27245 -7.77056 9.55761
thorax -12.6462 -5.08402 2.67721
lowerneck -20.3568 -1.24705 -1.6187
upperneck 30.2057 2.45458 -5.6578
head 13.7522 0.693063 -1.3929
rclavicle -2.07134e-013 1.19271e-013
rhumerus -4.12387 -55.9754 9.10051
rradius 21.2493
rwrist -1.11546
rhand 15.0554 -8.83079
rfingers 7.12502
rthumb 39.9038 -34.0858
lclavicle -2.07134e-013 1.19271e-013
lhumerus 50.7471 -9.14742 28.9322
lradius 20.6043
lwrist -49.2605
lhand 24.0841 27.3835
lfingers 7.12502
lthumb 48.319 49.4461
rfemur -157.649 -20.0376 105.79
rtibia 45.5884
rfoot 63.6173 2.58748
rtoes 63.4079
lfemur 12.8149 -5.59637 -1.03128
ltibia 7.01737
lfoot 30.2031 43.5736
ltoes 14.183
470
root 0.900678 21.3555 17.7015 -173.136 -26.9204 -171.888
lowerback 10.1673 -7.87704 15.8732
upperback -4.95126 -8.47672 8.83293
thorax -12.1709 -5.17834 3.05945
lowerneck -19.9536 -1.36934 -1.82916
upperneck 30.4521 2.18839 -5.03168
head 13.7483 0.660834 -1.15113
rclavicle 4.41302e-014 -9.70069e-014
rhumerus -6.76875 -54.1966 11.5284
rradius 21.0645
rwrist -0.212958
rhand 12.6607 -8.74166
rfingers 7.12502
rthumb 37.6453 -34.6365
lclavicle 4.41302e-014 -9.70069e-014
lhumerus 50.7893 -9.01336 28.0262
lradius 20.6095
lwrist -51.2423
lhand 22.3041 28.7633
lfingers 7.12502
lthumb 46.6751 51.5713
rfemur -160.252 -19.6205 103.934
rtibia 45.9886
rfoot 64.2224 4.31127
rtoes 63.3203
lfemur 19.2274 -7.03513 -1.13276
ltibia 2.70543
lfoot 37.6389 43.1705
ltoes 12.1175
471
root 0.920099 21.407 17.4768 -173.832 -27.7488 -173.676
lowerback 10.0243 -8.22647 14.176
upperback -4.57775 -9.12203 7.94125
thorax -11.5732 -5.30248 2.96189
lowerneck -19.7839 0.479974 -2.44051
upperneck 31.1454 1.01931 -3.58792
head 13.9438 -1.01582 -1.00152
rclavicle -5.36719e-015 -2.38542e-014
rhumerus -9.45341 -52.4097 13.7598
rradius 20.7526
rwrist 1.28531
rhand 10.5674 -8.57664
rfingers 7.12502
rthumb 35.6643 -34.9749
lclavicle -5.36719e-015 -2.38542e-014
lhumerus 51.385 -9.41187 26.0943
lradius 20.7212
lwrist -51.7754
lhand 21.021 30.6683
lfingers 7.12502
lthumb 45.485 53.9742
rfemur -68.2453 19.1919 282.311
rtibia 46.2518
rfoot -83.7957 27.6536
rtoes 63.2385
lfemur 24.6099 -8.62345 -1.01508
ltibia -3.18055e-015
lfoot 39.6521 45.2947
ltoes 14.3699
